<?xml version="1.0" encoding="UTF-8"?>
<svg version="1.1" xmlns="http://www.w3.org/2000/svg" width="1300" height="1300">
<path d="M0 0 C3.36021038 0.01071371 6.71988379 0.00002899 10.08007812 -0.01269531 C31.0583136 -0.02751248 51.85027499 1.50949644 72.61914062 4.44824219 C73.36741119 4.55267639 74.11568176 4.6571106 74.8866272 4.76470947 C105.4795278 9.0832636 135.66391213 16.76085693 164.66162109 27.41210938 C166.91227848 28.23095856 169.17138326 29.01919683 171.43554688 29.79980469 C216.96045498 45.70861831 260.20922208 70.36685083 297.99414062 100.26074219 C299.00009277 101.05472412 299.00009277 101.05472412 300.02636719 101.86474609 C307.7871494 108.01816965 315.34176578 114.32412424 322.60742188 121.05761719 C324.76303052 123.04740978 326.95639151 124.97469652 329.18164062 126.88574219 C332.66599849 129.9069441 335.89175978 133.13682835 339.12304688 136.42480469 C341.12599618 138.44592498 341.12599618 138.44592498 344.05664062 140.76074219 C347.12360587 143.37092538 349.60422498 146.16466536 352.20898438 149.22167969 C353.90206679 151.15557251 355.6588739 152.96242715 357.49414062 154.76074219 C375.32955914 172.28783565 390.37710115 193.37944028 403.99414062 214.26074219 C404.81113653 215.475641 405.63027468 216.68910103 406.45117188 217.90136719 C411.6076308 225.52526849 416.51155071 233.21635581 420.99414062 241.26074219 C421.41920898 242.01677734 421.84427734 242.7728125 422.28222656 243.55175781 C434.00842995 264.46093859 444.24903394 285.77929368 452.81201172 308.17822266 C453.57312393 310.16289898 454.34356686 312.144035 455.12548828 314.12060547 C460.74630061 328.33999617 464.93295969 342.80062513 468.80664062 357.57324219 C469.03761444 358.45035858 469.26858826 359.32747498 469.50656128 360.23117065 C474.41751216 378.98911936 478.19834786 397.67052223 480.37719727 416.94482422 C480.68401212 419.65670339 481.00314933 422.36692332 481.32421875 425.07714844 C483.43866567 443.11644059 484.23311593 460.91362884 484.24414062 479.07324219 C484.24514771 480.2255835 484.24615479 481.3779248 484.24719238 482.56518555 C484.23594606 501.65086284 483.41756983 520.32500531 480.99414062 539.26074219 C480.76138428 541.13004395 480.76138428 541.13004395 480.52392578 543.03710938 C471.5203765 614.05593137 446.0452272 683.91029407 405.97851562 743.31152344 C404.68302244 745.23691193 403.4010829 747.17150941 402.13476562 749.11621094 C393.8830111 761.74957892 384.69175963 773.70719955 374.99414062 785.26074219 C374.13464656 786.29579958 373.27527687 787.33096026 372.41601562 788.36621094 C363.43678136 799.13287301 354.00520635 809.44343902 343.99414062 819.26074219 C341.37314369 821.87306032 338.76169873 824.49433857 336.16210938 827.12792969 C330.61629331 832.73467864 325.03133041 838.17907884 318.99414062 843.26074219 C318.02992188 844.09089844 317.06570313 844.92105469 316.07226562 845.77636719 C302.39839373 857.51704368 288.04539938 868.36496094 272.99023438 878.28027344 C271.09646716 879.53208567 269.21221948 880.79852889 267.34179688 882.08496094 C235.70564805 903.73552477 200.90098914 920.50645904 164.80664062 933.19824219 C164.0233136 933.47386993 163.23998657 933.74949768 162.43292236 934.03347778 C148.21327948 939.01265044 133.82942794 943.10994043 119.24414062 946.88574219 C118.10332031 947.18480469 116.9625 947.48386719 115.78710938 947.79199219 C96.62677698 952.76355949 77.01616672 955.66273055 57.36914062 957.94824219 C56.35271484 958.0673999 55.33628906 958.18655762 54.2890625 958.30932617 C38.84617854 960.03754161 23.54443593 960.44716202 8.01904297 960.44604492 C4.66034962 960.44821556 1.30199429 960.46638875 -2.05664062 960.48535156 C-23.14601252 960.54157855 -44.00667153 958.98934019 -64.88085938 956.01074219 C-65.63823395 955.90403198 -66.39560852 955.79732178 -67.17593384 955.68737793 C-81.6418246 953.63110615 -95.83513078 950.84359755 -110.00585938 947.26074219 C-111.26897949 946.9465332 -112.53209961 946.63232422 -113.83349609 946.30859375 C-167.3426586 932.91498297 -220.07495313 910.52495678 -265.00585938 878.26074219 C-266.6402683 877.13708605 -268.27471891 876.013481 -269.91235352 874.89453125 C-279.71582232 868.1825588 -289.1596579 861.07237637 -298.30664062 853.49121094 C-300.06204433 852.04065302 -301.82976471 850.60482955 -303.61132812 849.18652344 C-309.89493697 844.16520529 -315.7937504 838.82069379 -321.63598633 833.30004883 C-325.58406413 829.56974665 -329.58911153 825.95012258 -333.78320312 822.49511719 C-335.00585938 821.26074219 -335.00585938 821.26074219 -335.00585938 819.26074219 C-335.66585937 819.26074219 -336.32585937 819.26074219 -337.00585938 819.26074219 C-337.00585938 818.60074219 -337.00585938 817.94074219 -337.00585938 817.26074219 C-337.66585937 817.26074219 -338.32585937 817.26074219 -339.00585938 817.26074219 C-340.55664062 815.68652344 -340.55664062 815.68652344 -342.31835938 813.57324219 C-344.44230622 811.06271925 -346.56087281 808.65250797 -348.94335938 806.38574219 C-351.00585938 804.26074219 -351.00585938 804.26074219 -351.00585938 802.26074219 C-351.66585937 802.26074219 -352.32585937 802.26074219 -353.00585938 802.26074219 C-354.44135663 800.66739979 -355.80413264 799.00823137 -357.13085938 797.32324219 C-360.59195449 792.99132667 -364.13874119 788.80493754 -367.88867188 784.72167969 C-414.32483603 730.74606453 -446.24746547 663.13085411 -463.00585938 594.26074219 C-463.17335693 593.59534424 -463.34085449 592.92994629 -463.51342773 592.24438477 C-467.2657001 577.12925688 -470.27362865 561.95306882 -472.25585938 546.51074219 C-472.40643799 545.34373779 -472.5570166 544.1767334 -472.7121582 542.97436523 C-473.18631011 539.07373949 -473.61056112 535.1699726 -474.00585938 531.26074219 C-474.09306244 530.40883301 -474.1802655 529.55692383 -474.27011108 528.67919922 C-475.8650117 512.69125454 -476.36909827 496.82245205 -476.31835938 480.76074219 C-476.3168689 479.58441223 -476.31537842 478.40808228 -476.31384277 477.19610596 C-476.27112094 458.36629967 -475.50327279 439.93615847 -473.00585938 421.26074219 C-472.84005371 419.98521484 -472.67424805 418.7096875 -472.50341797 417.39550781 C-470.99789289 405.94839931 -469.37115517 394.56421013 -467.00585938 383.26074219 C-466.79231812 382.13273193 -466.79231812 382.13273193 -466.57446289 380.98193359 C-465.81726881 377.35819584 -464.89478539 373.78108373 -463.96679688 370.19824219 C-463.76530029 369.41851547 -463.56380371 368.63878876 -463.35620117 367.83543396 C-459.10704945 351.45199041 -454.82853336 335.16911932 -449.00585938 319.26074219 C-448.72097656 318.46168457 -448.43609375 317.66262695 -448.14257812 316.83935547 C-435.42932461 281.26884825 -418.36051704 247.27280178 -397.18603516 216.01123047 C-395.3971847 213.35792931 -393.64234027 210.68226409 -391.88085938 208.01074219 C-378.73049792 188.32457235 -363.56487355 170.3231017 -347.49804688 152.97558594 C-345.22693764 150.50157196 -343.01783374 147.98576806 -340.81835938 145.44824219 C-337.80516759 142.0377736 -334.61063056 139.07379391 -331.13867188 136.13964844 C-328.64970209 133.94698458 -326.33516118 131.6220986 -324.00585938 129.26074219 C-319.82788204 125.04472561 -315.53359971 121.09433418 -311.00585938 117.26074219 C-310.0390625 116.42800781 -309.07226562 115.59527344 -308.07617188 114.73730469 C-291.72062283 100.69650282 -274.36202685 87.57698489 -256.00585938 76.26074219 C-255.22339844 75.74898438 -254.4409375 75.23722656 -253.63476562 74.70996094 C-222.60249867 54.42521858 -188.48856947 37.48972269 -153.21484375 25.99169922 C-151.05510514 25.2770377 -148.91310482 24.52390194 -146.77148438 23.75683594 C-134.1936758 19.30653857 -121.31094912 16.1623888 -108.34326172 13.06591797 C-105.42807831 12.36260598 -102.52311854 11.62970518 -99.61914062 10.88183594 C-88.04518534 7.97802419 -76.37938304 6.17782545 -64.56835938 4.57324219 C-63.8180545 4.47041931 -63.06774963 4.36759644 -62.29470825 4.26165771 C-41.53793799 1.4489425 -20.95406812 -0.07904901 0 0 Z M10.99414062 9.26074219 C10.99414062 97.04074219 10.99414062 184.82074219 10.99414062 275.26074219 C9.34414063 275.59074219 7.69414063 275.92074219 5.99414062 276.26074219 C5.99414062 334.34074219 5.99414062 392.42074219 5.99414062 452.26074219 C11.43914062 453.74574219 11.43914062 453.74574219 16.99414062 455.26074219 C23.15295469 458.63815635 26.43458735 462.70368436 28.99414062 469.26074219 C29.65414063 472.23074219 30.31414062 475.20074219 30.99414062 478.26074219 C91.05414062 478.26074219 151.11414063 478.26074219 212.99414062 478.26074219 C212.99414062 476.61074219 212.99414062 474.96074219 212.99414062 473.26074219 C213.79154569 473.26681771 214.58895075 473.27289324 215.4105196 473.27915287 C241.20912978 473.47494528 267.00783413 473.65531118 292.80664062 473.82324219 C293.78431916 473.82962503 294.76199769 473.83600787 295.76930285 473.84258413 C367.97616809 474.31759645 367.97616809 474.31759645 440.18164062 473.82324219 C441.12342289 473.81042835 442.06520515 473.79761452 443.03552628 473.78441238 C453.68891409 473.63717139 464.34172767 473.46737489 474.99414062 473.26074219 C475.00629885 470.7597506 475.01506322 468.25881979 475.02197266 465.7578125 C475.02570389 465.06132599 475.02943512 464.36483948 475.03327942 463.64724731 C475.04889587 456.07080258 474.52684733 448.55551777 473.86914062 441.01074219 C473.80578522 440.27139435 473.74242981 439.53204651 473.67715454 438.77029419 C466.93931781 361.84946692 440.62359064 289.44813355 399.74414062 224.19824219 C399.26074219 223.42448242 398.77734375 222.65072266 398.27929688 221.85351562 C395.07994958 216.79810863 391.63595886 212.00493843 387.99414062 207.26074219 C386.85138672 205.73126953 386.85138672 205.73126953 385.68554688 204.17089844 C376.05490436 191.28880965 366.23298278 178.67392979 355.34179688 166.82324219 C353.30140879 164.59612974 351.29300633 162.34845302 349.30664062 160.07324219 C348.75492188 159.44160156 348.20320313 158.80996094 347.63476562 158.15917969 C346.51147014 156.85936634 345.39728768 155.55163708 344.29101562 154.23730469 C340.7629156 150.08940331 337.07981844 146.45022247 332.91992188 142.93652344 C331.0515275 141.31067924 329.33594632 139.60688217 327.61914062 137.82324219 C325.367013 135.02789661 325.367013 135.02789661 322.99414062 135.26074219 C322.66414063 134.27074219 322.33414062 133.28074219 321.99414062 132.26074219 C320.57727146 130.74676482 320.57727146 130.74676482 318.74414062 129.26074219 C318.02097656 128.6484375 317.2978125 128.03613281 316.55273438 127.40527344 C315.70839844 126.69757813 314.8640625 125.98988281 313.99414062 125.26074219 C313.01574219 124.41898437 312.03734375 123.57722656 311.02929688 122.70996094 C303.55179773 116.28553332 295.8843574 110.16939767 287.99414062 104.26074219 C287.10855469 103.59558594 287.10855469 103.59558594 286.20507812 102.91699219 C232.67239649 62.82443062 172.64884162 36.40303287 107.99414062 20.26074219 C107.36660889 20.09413086 106.73907715 19.92751953 106.0925293 19.75585938 C85.18018734 14.82156857 63.3563166 12.18153967 41.99414062 10.26074219 C40.83615967 10.15487793 40.83615967 10.15487793 39.65478516 10.046875 C30.06577676 9.20177237 20.65472855 9.26074219 10.99414062 9.26074219 Z M-34.69335938 10.38574219 C-35.45356384 10.44776825 -36.21376831 10.50979431 -36.99700928 10.57369995 C-54.83990765 12.06234155 -72.4155827 14.97768939 -90.00585938 18.26074219 C-91.37230591 18.51198853 -91.37230591 18.51198853 -92.76635742 18.76831055 C-111.31862818 22.31073847 -129.54638397 27.91286231 -147.44335938 33.88574219 C-148.11634064 34.10922333 -148.7893219 34.33270447 -149.48269653 34.56295776 C-163.31250816 39.17487231 -176.76441796 44.52499141 -190.00585938 50.63574219 C-191.03694824 51.10979492 -192.06803711 51.58384766 -193.13037109 52.07226562 C-200.09467093 55.30300268 -206.89545191 58.7338014 -213.62304688 62.42871094 C-216.53979199 64.00833387 -219.47453382 65.4947082 -222.45532227 66.94604492 C-228.14565008 69.71829547 -233.53186245 72.69767427 -238.81835938 76.17480469 C-241.40566772 77.86796971 -244.00813526 79.52208541 -246.63085938 81.15917969 C-247.87959839 81.93998901 -247.87959839 81.93998901 -249.15356445 82.73657227 C-250.8031595 83.76711328 -252.45397147 84.79570983 -254.10620117 85.82202148 C-259.27476187 89.06519797 -264.17085799 92.54166148 -269.00585938 96.26074219 C-269.9675 96.97617187 -270.92914063 97.69160156 -271.91992188 98.42871094 C-293.18340349 114.26908557 -312.9860735 131.21590363 -331.81835938 149.88574219 C-332.72142822 150.77575928 -333.62449707 151.66577637 -334.55493164 152.58276367 C-335.39080811 153.41751221 -336.22668457 154.25226074 -337.08789062 155.11230469 C-337.84303955 155.86334473 -338.59818848 156.61438477 -339.3762207 157.38818359 C-341.22468705 159.09845954 -341.22468705 159.09845954 -341.00585938 161.26074219 C-341.864375 161.59912109 -341.864375 161.59912109 -342.74023438 161.94433594 C-345.64811656 163.63391576 -347.18628184 165.67671408 -349.25585938 168.32324219 C-352.06498733 171.85641943 -354.89700303 175.30514164 -357.94335938 178.63574219 C-365.98579598 187.58954835 -373.00967237 197.48353967 -380.00585938 207.26074219 C-380.45719238 207.88464844 -380.90852539 208.50855469 -381.37353516 209.15136719 C-389.91389475 220.96304235 -397.70711997 233.01840901 -404.66601562 245.83496094 C-405.68845935 247.68609082 -406.74416367 249.51888925 -407.81445312 251.34277344 C-423.61182805 278.38656192 -436.85515733 307.99703047 -445.40332031 338.16748047 C-446.12192458 340.66396063 -446.8804435 343.1471069 -447.63867188 345.63183594 C-457.06811975 376.79573526 -462.99542524 408.35454353 -465.81835938 440.76074219 C-465.88179535 441.47519501 -465.94523132 442.18964783 -466.0105896 442.92575073 C-466.19145083 445.00551954 -466.36074151 447.08588207 -466.52539062 449.16699219 C-466.61925049 450.34583984 -466.71311035 451.5246875 -466.80981445 452.73925781 C-467.10614338 459.57364356 -467.00585938 466.41993526 -467.00585938 473.26074219 C-380.54585937 473.26074219 -294.08585937 473.26074219 -205.00585938 473.26074219 C-205.00585938 474.91074219 -205.00585938 476.56074219 -205.00585938 478.26074219 C-144.94585937 478.26074219 -84.88585937 478.26074219 -23.00585938 478.26074219 C-22.01585937 474.30074219 -21.02585937 470.34074219 -20.00585938 466.26074219 C-16.65263479 460.04741429 -12.54177409 456.90882903 -6.00585938 454.26074219 C-3.36585938 453.60074219 -0.72585938 452.94074219 1.99414062 452.26074219 C1.99414062 394.18074219 1.99414062 336.10074219 1.99414062 276.26074219 C0.34414063 275.93074219 -1.30585937 275.60074219 -3.00585938 275.26074219 C-2.99978385 274.52777955 -2.99370832 273.79481691 -2.98744869 273.03964329 C-2.79015466 249.13429122 -2.61010896 225.22882664 -2.44335938 201.32324219 C-2.43697653 200.41112929 -2.43059369 199.49901639 -2.42401743 198.55926371 C-2.08245344 149.60096573 -1.88138944 100.65574025 -2.44335938 51.69824219 C-2.45617321 50.5804903 -2.46898705 49.46273842 -2.48218918 48.31111526 C-2.63343037 35.29397827 -2.80545226 22.27721486 -3.00585938 9.26074219 C-13.63263104 9.20523804 -24.10283329 9.50138226 -34.69335938 10.38574219 Z M-205.00585938 482.26074219 C-205.00585938 483.91074219 -205.00585938 485.56074219 -205.00585938 487.26074219 C-205.71820708 487.25466666 -206.43055479 487.24859114 -207.16448879 487.2423315 C-230.42399315 487.04482392 -253.68361336 486.86482657 -276.94335938 486.69824219 C-277.83167812 486.69185935 -278.71999686 486.6854765 -279.63523436 486.67890024 C-327.86781968 486.33339779 -376.08649598 486.1463053 -424.31835938 486.69824219 C-425.43953533 486.71105602 -426.56071129 486.72386986 -427.71586227 486.73707199 C-440.8128648 486.88873946 -453.90950281 487.06095766 -467.00585938 487.26074219 C-467.01801649 489.76246619 -467.02678146 492.26412945 -467.03369141 494.76586914 C-467.03742264 495.46265022 -467.04115387 496.1594313 -467.04499817 496.87732697 C-467.06056762 504.4321996 -466.53840992 511.9251251 -465.88085938 519.44824219 C-465.81750397 520.18564636 -465.75414856 520.92305054 -465.68887329 521.68280029 C-463.36105574 548.21011088 -458.94564201 574.54585695 -452.00585938 600.26074219 C-451.56935059 601.91130615 -451.56935059 601.91130615 -451.12402344 603.59521484 C-446.43439734 621.20984745 -440.71473765 638.31279511 -434.00585938 655.26074219 C-433.45345581 656.66054321 -433.45345581 656.66054321 -432.88989258 658.08862305 C-429.5190211 666.40524057 -425.63170161 674.45612493 -421.69506836 682.51538086 C-420.56950475 684.82089609 -419.45041382 687.12947081 -418.33203125 689.43847656 C-412.25015386 701.95830765 -405.68491103 714.02836628 -398.38085938 725.88574219 C-398.03303406 726.45078461 -397.68520874 727.01582703 -397.32684326 727.59799194 C-388.73093214 741.53280615 -379.37434724 754.78319976 -369.26220703 767.65283203 C-367.94998523 769.33225154 -366.65478071 771.02386529 -365.36132812 772.71777344 C-360.16833732 779.47761491 -354.75724888 785.89988743 -348.88916016 792.08691406 C-346.69387777 794.40271885 -344.78214897 796.5963078 -343.00585938 799.26074219 C-342.34585938 799.26074219 -341.68585938 799.26074219 -341.00585938 799.26074219 C-340.77511719 799.81890625 -340.544375 800.37707031 -340.30664062 800.95214844 C-338.66052429 803.87363419 -336.59512806 805.86128885 -334.19335938 808.19824219 C-333.34128906 809.03226563 -332.48921875 809.86628906 -331.61132812 810.72558594 C-330.75152344 811.5621875 -329.89171875 812.39878906 -329.00585938 813.26074219 C-326.74857769 815.50791664 -324.49714998 817.75951537 -322.26757812 820.03417969 C-318.72600602 823.63726794 -315.06035303 827.01956619 -311.23242188 830.31542969 C-308.65671523 832.56578392 -306.14651847 834.88100127 -303.63085938 837.19824219 C-281.63781704 857.22491898 -256.22709866 874.31651819 -230.36279297 888.92578125 C-228.14957483 890.17934213 -225.94615895 891.44858174 -223.74414062 892.72167969 C-166.36111907 925.61275978 -101.01896279 944.50044036 -35.25585938 950.13574219 C-34.19481491 950.22823746 -34.19481491 950.22823746 -33.11233521 950.32260132 C-25.56864882 950.96363742 -18.07863276 951.32912754 -10.50878906 951.28857422 C-9.78154633 951.28656509 -9.05430359 951.28455597 -8.30502319 951.28248596 C-6.53862796 951.27731257 -4.77224131 951.26932921 -3.00585938 951.26074219 C-2.79009251 936.46940404 -2.60681185 921.67774927 -2.44335938 906.88574219 C-2.42425947 905.15936775 -2.42425947 905.15936775 -2.40477371 903.39811707 C-1.88474381 855.43188954 -2.09111127 807.47739449 -2.44335938 759.51074219 C-2.44975732 758.63660707 -2.45615527 757.76247194 -2.4627471 756.86184788 C-2.62799048 734.32801247 -2.80862676 711.79432032 -3.00585938 689.26074219 C-1.35585938 689.26074219 0.29414062 689.26074219 1.99414062 689.26074219 C1.99414062 628.87074219 1.99414062 568.48074219 1.99414062 506.26074219 C-1.63585937 505.27074219 -5.26585937 504.28074219 -9.00585938 503.26074219 C-15.23502219 499.84474967 -18.25758381 495.78661 -21.00585938 489.26074219 C-21.66585938 486.95074219 -22.32585937 484.64074219 -23.00585938 482.26074219 C-83.06585937 482.26074219 -143.12585938 482.26074219 -205.00585938 482.26074219 Z M30.99414062 482.26074219 C30.00414062 485.56074219 29.01414062 488.86074219 27.99414062 492.26074219 C23.99133694 499.06550845 16.99051527 502.01721218 9.99414062 505.26074219 C8.67414063 505.59074219 7.35414063 505.92074219 5.99414062 506.26074219 C5.99414062 566.65074219 5.99414062 627.04074219 5.99414062 689.26074219 C7.64414062 689.26074219 9.29414062 689.26074219 10.99414062 689.26074219 C10.99414062 775.72074219 10.99414062 862.18074219 10.99414062 951.26074219 C21.81226738 951.26074219 32.26900676 950.98299259 42.99414062 950.07324219 C43.76074005 950.00993713 44.52733948 949.94663208 45.31716919 949.88140869 C90.76238952 946.0704076 135.78424374 935.47268325 177.99414062 918.26074219 C178.84234375 917.92075195 179.69054687 917.58076172 180.56445312 917.23046875 C197.98535915 910.24366401 215.52018857 902.54667358 231.55273438 892.74511719 C233.9700436 891.27539318 236.42774916 889.95154296 238.93164062 888.63574219 C252.15446689 881.47578386 265.04825045 873.39179617 276.99414062 864.26074219 C278.2325979 863.33735499 279.47228056 862.41561 280.71289062 861.49511719 C293.06339845 852.31764114 305.26291187 843.13620161 316.47070312 832.57324219 C318.99414062 830.26074219 318.99414062 830.26074219 321.33007812 828.57324219 C321.87921875 828.14011719 322.42835938 827.70699219 322.99414062 827.26074219 C322.99414062 826.60074219 322.99414062 825.94074219 322.99414062 825.26074219 C323.54682617 825.03257812 324.09951172 824.80441406 324.66894531 824.56933594 C327.66660465 822.882287 329.76179122 820.75261701 332.19726562 818.32324219 C332.67991882 817.84250244 333.16257202 817.3617627 333.65985107 816.86645508 C334.67413127 815.85353126 335.68590866 814.83809581 336.6953125 813.8203125 C338.24586034 812.25901054 339.80684566 810.70871722 341.36914062 809.15917969 C342.35415796 808.17284158 343.33855516 807.18588369 344.32226562 806.19824219 C345.66659668 804.85052734 345.66659668 804.85052734 347.03808594 803.47558594 C349.2147941 801.50338627 349.2147941 801.50338627 348.99414062 799.26074219 C349.56648438 799.03515625 350.13882812 798.80957031 350.72851562 798.57714844 C353.63639781 796.88756862 355.17456309 794.8447703 357.24414062 792.19824219 C359.98964447 788.74407745 362.75057599 785.37665644 365.74414062 782.13574219 C371.95692656 775.22712422 377.42852911 767.69133786 382.99414062 760.26074219 C383.74050781 759.26558594 384.486875 758.27042969 385.25585938 757.24511719 C416.79458553 714.51110285 441.57284134 665.43278414 455.99414062 614.26074219 C456.29626465 613.21160645 456.59838867 612.1624707 456.90966797 611.08154297 C464.14296338 585.7949569 469.23053662 560.38071941 472.30664062 534.26074219 C472.38813354 533.56984497 472.46962646 532.87894775 472.55358887 532.16711426 C474.29327769 517.17094274 475.06385011 502.34928014 474.99414062 487.26074219 C473.70819 487.25043472 472.42223938 487.24012726 471.09732056 487.22950745 C459.00122315 487.13191449 446.90517882 487.02919402 434.80916786 486.92140293 C428.5899193 486.86614756 422.37066607 486.81272339 416.15136719 486.76342773 C410.15374929 486.71582274 404.15619 486.66348137 398.15864182 486.60780144 C395.86603625 486.58736034 393.57341459 486.56865022 391.28078079 486.55166817 C388.07921765 486.52766298 384.87776605 486.49760313 381.67626953 486.46606445 C380.72033401 486.46030899 379.7643985 486.45455353 378.77949524 486.44862366 C377.91008804 486.43883484 377.04068085 486.42904602 376.14492798 486.41896057 C375.38721415 486.41250802 374.62950031 486.40605547 373.84882545 486.39940739 C371.99414062 486.26074219 371.99414062 486.26074219 369.99414062 485.26074219 C369.99414062 485.92074219 369.99414062 486.58074219 369.99414062 487.26074219 C318.18414063 487.26074219 266.37414062 487.26074219 212.99414062 487.26074219 C212.99414062 485.61074219 212.99414062 483.96074219 212.99414062 482.26074219 C152.93414063 482.26074219 92.87414062 482.26074219 30.99414062 482.26074219 Z " fill="#050505" transform="translate(646.005859375,169.7392578125)"/>
<path d="M0 0 C0.99 0 1.98 0 3 0 C5 3.75 5 3.75 5 6 C5.66 6 6.32 6 7 6 C7 54.51 7 103.02 7 153 C5.68 153.33 4.36 153.66 3 154 C2.67 212.08 2.34 270.16 2 330 C4.64 330.33 7.28 330.66 10 331 C16.77904578 333.43002718 21.53615665 337.71965452 25 344 C28.13788411 351.80696941 28.54848356 361.18168249 25.375 369.0625 C21.36639736 376.58036377 13.58918871 380.6639669 6 384 C4.68 384 3.36 384 2 384 C2 444.39 2 504.78 2 567 C3.65 567 5.3 567 7 567 C7 653.46 7 739.92 7 829 C44.54922752 826.47906264 44.54922752 826.47906264 81.78222656 821.31542969 C83.02842773 821.10176758 84.27462891 820.88810547 85.55859375 820.66796875 C86.6870874 820.46067139 87.81558105 820.25337402 88.97827148 820.03979492 C92 820 92 820 94.4909668 821.51928711 C96.24440298 823.24636608 97.66224558 824.93804769 99 827 C96.74742647 829.25257353 95.97694448 829.39050989 92.93359375 829.9296875 C91.64098633 830.16014771 91.64098633 830.16014771 90.32226562 830.39526367 C89.37029297 830.55357666 88.41832031 830.71188965 87.4375 830.875 C86.44041016 831.04427002 85.44332031 831.21354004 84.41601562 831.38793945 C75.30598771 832.88173633 66.16208714 834.06820959 57 835.1875 C55.97300491 835.31424103 55.97300491 835.31424103 54.92526245 835.44354248 C37.92830149 837.52413776 21.13752778 838.18653404 4.02490234 838.18530273 C0.666209 838.18747337 -2.69214634 838.20564656 -6.05078125 838.22460938 C-27.14015314 838.28083636 -48.00081215 836.728598 -68.875 833.75 C-69.63237457 833.64328979 -70.38974915 833.53657959 -71.17007446 833.42663574 C-85.63596522 831.37036396 -99.8292714 828.58285536 -114 825 C-115.26312012 824.68579102 -116.52624023 824.37158203 -117.82763672 824.04785156 C-171.33679923 810.65424078 -224.06909376 788.26421459 -269 756 C-270.63440893 754.87634386 -272.26885953 753.75273881 -273.90649414 752.63378906 C-283.70996295 745.92181661 -293.15379852 738.81163418 -302.30078125 731.23046875 C-304.05618496 729.77991084 -305.82390533 728.34408736 -307.60546875 726.92578125 C-313.88907759 721.90446311 -319.78789103 716.5599516 -325.63012695 711.03930664 C-329.57820476 707.30900446 -333.58325215 703.68938039 -337.77734375 700.234375 C-339 699 -339 699 -339 697 C-339.66 697 -340.32 697 -341 697 C-341 696.34 -341 695.68 -341 695 C-341.66 695 -342.32 695 -343 695 C-344.55078125 693.42578125 -344.55078125 693.42578125 -346.3125 691.3125 C-348.43644684 688.80197706 -350.55501344 686.39176579 -352.9375 684.125 C-355 682 -355 682 -355 680 C-355.66 680 -356.32 680 -357 680 C-358.43549726 678.40665761 -359.79827327 676.74748918 -361.125 675.0625 C-364.58609511 670.73058448 -368.13288182 666.54419535 -371.8828125 662.4609375 C-418.31897665 608.48532234 -450.2416061 540.87011192 -467 472 C-467.16749756 471.33460205 -467.33499512 470.6692041 -467.50756836 469.98364258 C-471.25984072 454.8685147 -474.26776928 439.69232663 -476.25 424.25 C-476.47586792 422.49949341 -476.47586792 422.49949341 -476.70629883 420.71362305 C-477.18045074 416.81299731 -477.60470174 412.90923042 -478 409 C-478.08720306 408.14809082 -478.17440613 407.29618164 -478.26425171 406.41845703 C-479.85915233 390.43051235 -480.36323889 374.56170986 -480.3125 358.5 C-480.31100952 357.32367004 -480.30951904 356.14734009 -480.3079834 354.93536377 C-480.26525872 336.10430397 -479.49146375 317.67701605 -477 299 C-476.83419434 297.71383789 -476.66838867 296.42767578 -476.49755859 295.10253906 C-473.54807184 272.33160532 -473.54807184 272.33160532 -471 263 C-469.68 263 -468.36 263 -467 263 C-467 263.66 -467 264.32 -467 265 C-466.0409375 265.4021875 -466.0409375 265.4021875 -465.0625 265.8125 C-463 267 -463 267 -462 270 C-462.22117529 271.88542867 -462.53251908 273.76072536 -462.890625 275.625 C-463.10428711 276.78950684 -463.31794922 277.95401367 -463.53808594 279.15380859 C-463.77301758 280.42305176 -464.00794922 281.69229492 -464.25 283 C-466.34893937 294.75413313 -467.78465551 306.47533494 -468.75 318.375 C-468.80853149 319.09091309 -468.86706299 319.80682617 -468.92736816 320.54443359 C-469.74555612 330.68926448 -470.36504695 340.84075115 -471 351 C-384.54 351 -298.08 351 -209 351 C-209 352.65 -209 354.3 -209 356 C-148.94 356 -88.88 356 -27 356 C-26.67 353.03 -26.34 350.06 -26 347 C-23.62283298 340.11335735 -19.22538144 335.61513292 -13 332 C-8.8312444 330.20171327 -6.66818117 330 -2 330 C-2.33 271.92 -2.66 213.84 -3 154 C-4.32 153.67 -5.64 153.34 -7 153 C-7.07002793 134.01580138 -7.12295764 115.03162891 -7.15543652 96.047328 C-7.17091671 87.23292414 -7.19202816 78.41860045 -7.22631836 69.60424805 C-7.25618554 61.92319048 -7.27556662 54.24219096 -7.28226548 46.56107694 C-7.28618231 42.49257651 -7.29541113 38.42424219 -7.31719017 34.35579491 C-7.33751308 30.52844583 -7.34384238 26.70133169 -7.33932304 22.87393379 C-7.34015014 21.46741841 -7.34614089 20.06089538 -7.35761642 18.65442657 C-7.37249302 16.73750454 -7.36717733 14.82045719 -7.36076355 12.90348816 C-7.36352893 11.82959933 -7.36629431 10.75571051 -7.36914349 9.64927959 C-7 7 -7 7 -5.60245228 5.13103199 C-4 4 -4 4 -2 4 C-2 3.34 -2 2.68 -2 2 C-1.34 2 -0.68 2 0 2 C0 1.34 0 0.68 0 0 Z M-209 360 C-209 361.65 -209 363.3 -209 365 C-209.71234771 364.99392447 -210.42469542 364.98784895 -211.15862942 364.98158932 C-234.41813378 364.78408174 -257.67775399 364.60408438 -280.9375 364.4375 C-281.82581874 364.43111716 -282.71413749 364.42473432 -283.62937498 364.41815805 C-331.8619603 364.07265561 -380.0806366 363.88556311 -428.3125 364.4375 C-429.43367596 364.45031384 -430.55485191 364.46312767 -431.7100029 364.4763298 C-444.80700543 364.62799727 -457.90364343 364.80021547 -471 365 C-471.01215712 367.501724 -471.02092208 370.00338726 -471.02783203 372.50512695 C-471.03156326 373.20190804 -471.03529449 373.89868912 -471.03913879 374.61658478 C-471.05470825 382.17145741 -470.53255055 389.66438291 -469.875 397.1875 C-469.81164459 397.92490417 -469.74828918 398.66230835 -469.68301392 399.42205811 C-467.35519636 425.9493687 -462.93978263 452.28511477 -456 478 C-455.56349121 479.65056396 -455.56349121 479.65056396 -455.11816406 481.33447266 C-450.42853797 498.94910527 -444.70887828 516.05205293 -438 533 C-437.44759644 534.39980103 -437.44759644 534.39980103 -436.8840332 535.82788086 C-433.51316172 544.14449838 -429.62584224 552.19538274 -425.68920898 560.25463867 C-424.56364538 562.5601539 -423.44455445 564.86872862 -422.32617188 567.17773438 C-416.24429448 579.69756546 -409.67905166 591.7676241 -402.375 603.625 C-402.02717468 604.19004242 -401.67934937 604.75508484 -401.32098389 605.33724976 C-392.72507277 619.27206396 -383.36848787 632.52245757 -373.25634766 645.39208984 C-371.94412586 647.07150935 -370.64892133 648.76312311 -369.35546875 650.45703125 C-364.16247795 657.21687273 -358.7513895 663.63914525 -352.88330078 669.82617188 C-350.6880184 672.14197667 -348.77628959 674.33556561 -347 677 C-346.34 677 -345.68 677 -345 677 C-344.76925781 677.55816406 -344.53851563 678.11632812 -344.30078125 678.69140625 C-342.65466491 681.61289201 -340.58926868 683.60054666 -338.1875 685.9375 C-337.33542969 686.77152344 -336.48335937 687.60554688 -335.60546875 688.46484375 C-334.74566406 689.30144531 -333.88585937 690.13804687 -333 691 C-330.74271832 693.24717445 -328.4912906 695.49877318 -326.26171875 697.7734375 C-322.72014664 701.37652575 -319.05449365 704.758824 -315.2265625 708.0546875 C-312.65085585 710.30504173 -310.1406591 712.62025908 -307.625 714.9375 C-285.63195767 734.96417679 -260.22123928 752.055776 -234.35693359 766.66503906 C-232.14371546 767.91859995 -229.94029958 769.18783955 -227.73828125 770.4609375 C-170.35525969 803.35201759 -105.01310341 822.23969817 -39.25 827.875 C-38.18895554 827.96749527 -38.18895554 827.96749527 -37.10647583 828.06185913 C-29.56278945 828.70289524 -22.07277339 829.06838535 -14.50292969 829.02783203 C-13.77568695 829.02582291 -13.04844421 829.02381378 -12.29916382 829.02174377 C-10.53276858 829.01657038 -8.76638194 829.00858702 -7 829 C-6.78423313 814.20866185 -6.60095247 799.41700709 -6.4375 784.625 C-6.4184001 782.89862556 -6.4184001 782.89862556 -6.39891434 781.13737488 C-5.87888443 733.17114735 -6.08525189 685.2166523 -6.4375 637.25 C-6.44389795 636.37586488 -6.4502959 635.50172976 -6.45688772 634.60110569 C-6.62213111 612.06727028 -6.80276739 589.53357813 -7 567 C-5.35 567 -3.7 567 -2 567 C-2 506.61 -2 446.22 -2 384 C-5.63 383.01 -9.26 382.02 -13 381 C-19.22916282 377.58400749 -22.25172444 373.52586781 -25 367 C-25.66 364.69 -26.32 362.38 -27 360 C-87.06 360 -147.12 360 -209 360 Z " fill="#030303" transform="translate(650,292)"/>
<path d="M0 0 C1.32 0 2.64 0 4 0 C4 60.39 4 120.78 4 183 C5.65 183 7.3 183 9 183 C9 269.46 9 355.92 9 445 C46.54922752 442.47906264 46.54922752 442.47906264 83.78222656 437.31542969 C85.02842773 437.10176758 86.27462891 436.88810547 87.55859375 436.66796875 C88.6870874 436.46067139 89.81558105 436.25337402 90.97827148 436.03979492 C94 436 94 436 96.4909668 437.51928711 C98.24440298 439.24636608 99.66224558 440.93804769 101 443 C98.74742647 445.25257353 97.97694448 445.39050989 94.93359375 445.9296875 C93.64098633 446.16014771 93.64098633 446.16014771 92.32226562 446.39526367 C90.89430664 446.63273315 90.89430664 446.63273315 89.4375 446.875 C88.44041016 447.04427002 87.44332031 447.21354004 86.41601562 447.38793945 C77.30598771 448.88173633 68.16208714 450.06820959 59 451.1875 C58.31533661 451.27199402 57.63067322 451.35648804 56.92526245 451.44354248 C39.92830149 453.52413776 23.13752778 454.18653404 6.02490234 454.18530273 C2.666209 454.18747337 -0.69214634 454.20564656 -4.05078125 454.22460938 C-25.14015314 454.28083636 -46.00081215 452.728598 -66.875 449.75 C-67.63237457 449.64328979 -68.38974915 449.53657959 -69.17007446 449.42663574 C-83.63596522 447.37036396 -97.8292714 444.58285536 -112 441 C-113.26312012 440.68579102 -114.52624023 440.37158203 -115.82763672 440.04785156 C-169.33679923 426.65424078 -222.06909376 404.26421459 -267 372 C-268.63440893 370.87634386 -270.26885953 369.75273881 -271.90649414 368.63378906 C-281.70996295 361.92181661 -291.15379852 354.81163418 -300.30078125 347.23046875 C-302.05618496 345.77991084 -303.82390533 344.34408736 -305.60546875 342.92578125 C-311.88907759 337.90446311 -317.78789103 332.5599516 -323.63012695 327.03930664 C-327.57820476 323.30900446 -331.58325215 319.68938039 -335.77734375 316.234375 C-337 315 -337 315 -337 313 C-337.66 313 -338.32 313 -339 313 C-339 312.34 -339 311.68 -339 311 C-339.66 311 -340.32 311 -341 311 C-342.55078125 309.42578125 -342.55078125 309.42578125 -344.3125 307.3125 C-346.43644684 304.80197706 -348.55501344 302.39176579 -350.9375 300.125 C-353 298 -353 298 -353 296 C-353.66 296 -354.32 296 -355 296 C-356.43549726 294.40665761 -357.79827327 292.74748918 -359.125 291.0625 C-362.58609511 286.73058448 -366.13288182 282.54419535 -369.8828125 278.4609375 C-413.17583182 228.13879327 -444.65310372 164.98286076 -461.875 101.0625 C-462.21490967 99.81315674 -462.55481934 98.56381348 -462.9050293 97.27661133 C-465.37940815 87.67387266 -465.37940815 87.67387266 -464 83 C-462.5625 81.1875 -462.5625 81.1875 -461 80 C-460.34 80 -459.68 80 -459 80 C-459 79.34 -459 78.68 -459 78 C-458.34 78 -457.68 78 -457 78 C-456.78907715 78.80928955 -456.5781543 79.6185791 -456.36083984 80.45239258 C-447.7256624 113.48206342 -437.71258451 145.49809609 -422.68920898 176.25463867 C-421.56364538 178.5601539 -420.44455445 180.86872862 -419.32617188 183.17773438 C-413.24429448 195.69756546 -406.67905166 207.7676241 -399.375 219.625 C-399.02717468 220.19004242 -398.67934937 220.75508484 -398.32098389 221.33724976 C-389.72507277 235.27206396 -380.36848787 248.52245757 -370.25634766 261.39208984 C-368.94412586 263.07150935 -367.64892133 264.76312311 -366.35546875 266.45703125 C-360.8078315 273.68002902 -354.95976134 280.47330163 -348.71484375 287.1015625 C-346.52129105 289.44345617 -344.39798853 291.8129164 -342.3125 294.25 C-339.00263828 298.1005817 -335.38701959 301.60576086 -331.72265625 305.1171875 C-330 307 -330 307 -330 309 C-329.41347656 309.2578125 -328.82695312 309.515625 -328.22265625 309.78125 C-325.82662877 311.09506472 -324.31088448 312.5218401 -322.4375 314.5 C-320.32475777 316.72096733 -318.58386374 318.27742417 -316 320 C-316 320.66 -316 321.32 -316 322 C-315.45601562 322.22429687 -314.91203125 322.44859375 -314.3515625 322.6796875 C-311.28065237 324.40388621 -308.90583035 326.71239465 -306.375 329.125 C-284.4032731 349.6431096 -258.48937748 366.90432011 -232.35693359 381.66503906 C-230.14371546 382.91859995 -227.94029958 384.18783955 -225.73828125 385.4609375 C-157.58953035 424.52277083 -82.61578918 440.14901318 -5 445 C-5 358.54 -5 272.08 -5 183 C-3.35 183 -1.7 183 0 183 C0 122.61 0 62.22 0 0 Z " fill="#050505" transform="translate(648,676)"/>
<path d="M0 0 C0.99 0 1.98 0 3 0 C5 3.75 5 3.75 5 6 C5.66 6 6.32 6 7 6 C7 54.51 7 103.02 7 153 C5.68 153.33 4.36 153.66 3 154 C2.67 212.08 2.34 270.16 2 330 C4.64 330.33 7.28 330.66 10 331 C16.77904578 333.43002718 21.53615665 337.71965452 25 344 C28.13788411 351.80696941 28.54848356 361.18168249 25.375 369.0625 C23.28890197 372.9748361 20.72445203 375.62566183 17 378 C16.21625 378.53882813 15.4325 379.07765625 14.625 379.6328125 C7.47026081 384.10452449 1.35337903 385.24771991 -7 384 C-14.42574891 381.83141846 -19.89629696 378.20337635 -23.75 371.4375 C-27.74102961 363.94800456 -28.51419306 355.51542859 -26.24609375 347.25390625 C-25.29839235 345.05003594 -24.25519868 343.04243131 -23 341 C-22.443125 340.0925 -21.88625 339.185 -21.3125 338.25 C-15.38883313 332.48643224 -10.24847448 331.03105931 -2 330 C-2.495 242.88 -2.495 242.88 -3 154 C-4.32 153.67 -5.64 153.34 -7 153 C-7.07002793 134.01580138 -7.12295764 115.03162891 -7.15543652 96.047328 C-7.17091671 87.23292414 -7.19202816 78.41860045 -7.22631836 69.60424805 C-7.25618554 61.92319048 -7.27556662 54.24219096 -7.28226548 46.56107694 C-7.28618231 42.49257651 -7.29541113 38.42424219 -7.31719017 34.35579491 C-7.33751308 30.52844583 -7.34384238 26.70133169 -7.33932304 22.87393379 C-7.34015014 21.46741841 -7.34614089 20.06089538 -7.35761642 18.65442657 C-7.37249302 16.73750454 -7.36717733 14.82045719 -7.36076355 12.90348816 C-7.36352893 11.82959933 -7.36629431 10.75571051 -7.36914349 9.64927959 C-7 7 -7 7 -5.60245228 5.13103199 C-4 4 -4 4 -2 4 C-2 3.34 -2 2.68 -2 2 C-1.34 2 -0.68 2 0 2 C0 1.34 0 0.68 0 0 Z " fill="#010101" transform="translate(650,292)"/>
<path d="M0 0 C1.33335154 0.71227097 2.64959762 1.45850539 3.9375 2.25 C5.29875 3.0853125 5.29875 3.0853125 6.6875 3.9375 C13.65619274 11.09976754 15.30491228 18.96277749 15.21484375 28.66015625 C14.71988153 35.06677989 12.78446776 39.31293626 8.375 43.9375 C7.25162637 44.74071214 6.10198365 45.50764167 4.9375 46.25 C4.15375 46.78882813 3.37 47.32765625 2.5625 47.8828125 C-4.59223919 52.35452449 -10.70912097 53.49771991 -19.0625 52.25 C-26.48824891 50.08141846 -31.95879696 46.45337635 -35.8125 39.6875 C-39.80352961 32.19800456 -40.57669306 23.76542859 -38.30859375 15.50390625 C-37.36089235 13.30003594 -36.31769868 11.29243131 -35.0625 9.25 C-34.505625 8.3425 -33.94875 7.435 -33.375 6.5 C-24.68621921 -1.95394888 -11.28778193 -4.85393658 0 0 Z " fill="#FE0000" transform="translate(662.0625,623.75)"/>
<path d="M0 0 C10.23 0 20.46 0 31 0 C30.01 0.33 29.02 0.66 28 1 C27.30712265 2.31990272 26.64461166 3.65586532 26 5 C24.1953125 7.10546875 24.1953125 7.10546875 22.125 9.1875 C21.44695312 9.88230469 20.76890625 10.57710937 20.0703125 11.29296875 C17.94399123 13.04618082 16.71656478 13.70692662 14 14 C11.75 13.0625 11.75 13.0625 10 12 C10 11.34 10 10.68 10 10 C9.34 10 8.68 10 8 10 C6.64613064 8.34997172 5.31321858 6.6825613 4 5 C3.34 4.67 2.68 4.34 2 4 C2 3.01 2 2.02 2 1 C1.34 0.67 0.68 0.34 0 0 Z " fill="#0F0F0F" transform="translate(271,643)"/>
<path d="M0 0 C7.92 0 15.84 0 24 0 C22.24390578 3.51218843 20.46387728 5.99714957 18 9 C17.01 10.485 17.01 10.485 16 12 C14.0546875 12.51171875 14.0546875 12.51171875 11.875 12.6875 C10.59625 12.790625 9.3175 12.89375 8 13 C7.79375 12.319375 7.5875 11.63875 7.375 10.9375 C5.78850488 7.54816951 3.74261422 5.20479077 1.2421875 2.453125 C0 1 0 1 0 0 Z " fill="#0D0D0D" transform="translate(1005,643)"/>
<path d="M0 0 C0.66 0 1.32 0 2 0 C2 0.66 2 1.32 2 2 C6.14093698 2.20970559 6.14093698 2.20970559 10 1 C10 6.28 10 11.56 10 17 C9.34 17 8.68 17 8 17 C7.34 15.68 6.68 14.36 6 13 C5.01 13 4.02 13 3 13 C2.34 13 1.68 13 1 13 C1 13.66 1 14.32 1 15 C-0.65 15.66 -2.3 16.32 -4 17 C-4 12.71 -4 8.42 -4 4 C-2.68 3.34 -1.36 2.68 0 2 C0 1.34 0 0.68 0 0 Z " fill="#151515" transform="translate(647,281)"/>
<path d="M0 0 C3.91742529 1.95871265 5.95277638 3.95277638 9 7 C9.66 7 10.32 7 11 7 C11.99 6.01 12.98 5.02 14 4 C14 7.3 14 10.6 14 14 C13.67 13.01 13.34 12.02 13 11 C12.01 11.33 11.02 11.66 10 12 C9.67 11.34 9.34 10.68 9 10 C8.67 10.66 8.34 11.32 8 12 C7.34 12 6.68 12 6 12 C5.34 13.65 4.68 15.3 4 17 C3.01 16.67 2.02 16.34 1 16 C0.67 16.66 0.34 17.32 0 18 C0 12.06 0 6.12 0 0 Z " fill="#0D0D0D" transform="translate(643,1014)"/>
<path d="M0 0 C2.71653543 5.07086614 2.71653543 5.07086614 3 8 C1.625 9.5 1.625 9.5 0 11 C-0.33 12.32 -0.66 13.64 -1 15 C-2.65 12.03 -4.3 9.06 -6 6 C-4.02 4.02 -2.04 2.04 0 0 Z " fill="#121212" transform="translate(989,976)"/>
<path d="M0 0 C0.66 0.99 1.32 1.98 2 3 C1.67 3.99 1.34 4.98 1 6 C-1 6 -3 6 -5 6 C-5 6.66 -5 7.32 -5 8 C-6.65 8.66 -8.3 9.32 -10 10 C-10 8.68 -10 7.36 -10 6 C-9.34 5.67 -8.68 5.34 -8 5 C-6.86649466 2.98330173 -6.86649466 2.98330173 -6 1 C-5.38125 1.20625 -4.7625 1.4125 -4.125 1.625 C-3.073125 1.810625 -3.073125 1.810625 -2 2 C-1.34 1.34 -0.68 0.68 0 0 Z " fill="#222222" transform="translate(653,288)"/>
<path d="M0 0 C0.33 0 0.66 0 1 0 C1 3.3 1 6.6 1 10 C0.67 9.01 0.34 8.02 0 7 C-0.99 7.33 -1.98 7.66 -3 8 C-3.33 7.34 -3.66 6.68 -4 6 C-4.33 6.66 -4.66 7.32 -5 8 C-5.66 8 -6.32 8 -7 8 C-7 8.66 -7 9.32 -7 10 C-7.66 9.67 -8.32 9.34 -9 9 C-9 8.01 -9 7.02 -9 6 C-8.34 6 -7.68 6 -7 6 C-7 4.35 -7 2.7 -7 1 C-6.34 1 -5.68 1 -5 1 C-4.67 1.66 -4.34 2.32 -4 3 C-3.34 3 -2.68 3 -2 3 C-1.34 2.01 -0.68 1.02 0 0 Z " fill="#1C1C1C" transform="translate(656,1018)"/>
<path d="M0 0 C0.66 0 1.32 0 2 0 C2 0.66 2 1.32 2 2 C3.32 2.66 4.64 3.32 6 4 C4.75 5.5625 4.75 5.5625 3 7 C0.8125 6.6875 0.8125 6.6875 -1 6 C-0.67 4.02 -0.34 2.04 0 0 Z " fill="#181818" transform="translate(1110,750)"/>
<path d="M0 0 C0.33 0 0.66 0 1 0 C1 3.96 1 7.92 1 12 C0.34 12 -0.32 12 -1 12 C-2.31299735 4.4137931 -2.31299735 4.4137931 -1 1 C-0.67 0.67 -0.34 0.34 0 0 Z " fill="#0A0A0A" transform="translate(656,286)"/>
<path d="M0 0 C2.3125 1.9375 2.3125 1.9375 4 4 C1.1875 4.625 1.1875 4.625 -2 5 C-2.99 4.34 -3.98 3.68 -5 3 C-5 2.34 -5 1.68 -5 1 C-2.75 0.25 -2.75 0.25 0 0 Z " fill="#0C0C0C" transform="translate(745,1116)"/>
<path d="M0 0 C1 2 1 2 0.375 4.5625 C-1 7 -1 7 -3.5 7.9375 C-4.325 7.958125 -5.15 7.97875 -6 8 C-6.66 7.34 -7.32 6.68 -8 6 C-5.36 4.02 -2.72 2.04 0 0 Z " fill="#121212" transform="translate(369,260)"/>
<path d="M0 0 C3.16115776 1.36983503 3.9927092 1.9890638 6 5 C4.02 5.33 2.04 5.66 0 6 C0 4.02 0 2.04 0 0 Z " fill="#1E1E1E" transform="translate(643,1014)"/>
<path d="M0 0 C1.32 1.32 2.64 2.64 4 4 C3.34 5.65 2.68 7.3 2 9 C1.34 9 0.68 9 0 9 C0 6.03 0 3.06 0 0 Z " fill="#080808" transform="translate(643,285)"/>
<path d="M0 0 C1.875 0.1875 1.875 0.1875 4 1 C5.25 3.5625 5.25 3.5625 6 6 C5.01 6.495 5.01 6.495 4 7 C1 5 1 5 0.3125 2.375 C0.209375 1.59125 0.10625 0.8075 0 0 Z " fill="#181818" transform="translate(545,183)"/>
<path d="M0 0 C0.66 0 1.32 0 2 0 C2.66 1.32 3.32 2.64 4 4 C3.01 5.485 3.01 5.485 2 7 C1.34 7 0.68 7 0 7 C0 7.66 0 8.32 0 9 C-0.66 8.67 -1.32 8.34 -2 8 C-2 7.01 -2 6.02 -2 5 C-1.34 5 -0.68 5 0 5 C0 3.35 0 1.7 0 0 Z " fill="#343434" transform="translate(649,1019)"/>
<path d="M0 0 C1 3 1 3 1 7 C0.01 7.33 -0.98 7.66 -2 8 C-2.309375 7.21625 -2.61875 6.4325 -2.9375 5.625 C-3.92875038 3.07669872 -3.92875038 3.07669872 -5 1 C-2 0 -2 0 0 0 Z " fill="#252525" transform="translate(1015,648)"/>
<path d="M0 0 C0.66 0.66 1.32 1.32 2 2 C-0.52788007 4.79872437 -2.20411134 6.45773019 -6 7 C-6 6.34 -6 5.68 -6 5 C-4.04072937 3.2856382 -2.04119788 1.61594832 0 0 Z " fill="#131313" transform="translate(975,990)"/>
<path d="M0 0 C0.66 0.66 1.32 1.32 2 2 C1.34 2 0.68 2 0 2 C-0.33 3.65 -0.66 5.3 -1 7 C-1.99 7.33 -2.98 7.66 -4 8 C-4.33 7.01 -4.66 6.02 -5 5 C-3.35 3.35 -1.7 1.7 0 0 Z " fill="#161616" transform="translate(337,285)"/>
<path d="M0 0 C0 0.99 0 1.98 0 3 C-3.4352048 5.29013653 -4.985331 5.17842973 -9 5 C-6.3534665 2.3534665 -3.43778736 1.40058003 0 0 Z " fill="#131313" transform="translate(461,208)"/>
<path d="M0 0 C1.32 1.32 2.64 2.64 4 4 C2 4.66666667 0 5.33333333 -2 6 C-1.34 4.02 -0.68 2.04 0 0 Z " fill="#111111" transform="translate(281,943)"/>
<path d="M0 0 C0.33 0.99 0.66 1.98 1 3 C0.01 3.495 0.01 3.495 -1 4 C-0.67 2.68 -0.34 1.36 0 0 Z M-3 3 C-2.01 3.66 -1.02 4.32 0 5 C-0.33 5.99 -0.66 6.98 -1 8 C-1.33 7.34 -1.66 6.68 -2 6 C-2.99 5.67 -3.98 5.34 -5 5 C-4.34 4.34 -3.68 3.68 -3 3 Z " fill="#161616" transform="translate(1000,326)"/>
<path d="M0 0 C0.66 0.33 1.32 0.66 2 1 C0.35 2.98 -1.3 4.96 -3 7 C-3.99 6.34 -4.98 5.68 -6 5 C-4.02 3.35 -2.04 1.7 0 0 Z " fill="#141414" transform="translate(358,268)"/>
<path d="M0 0 C2.97 0.495 2.97 0.495 6 1 C5.01 1.495 5.01 1.495 4 2 C4 2.66 4 3.32 4 4 C2.35 3.67 0.7 3.34 -1 3 C-0.67 2.01 -0.34 1.02 0 0 Z " fill="#131313" transform="translate(754,187)"/>
</svg>
